<?xml version="1.0" encoding="UTF-8"?>
<svg id="Layer_2" data-name="Layer 2" xmlns="http://www.w3.org/2000/svg" xmlns:xlink="http://www.w3.org/1999/xlink" viewBox="0 0 380.97 177.9">
  <defs>
    <linearGradient id="linear-gradient" x1="308.4" y1="110.3" x2="308.4" y2="5.61" gradientUnits="userSpaceOnUse">
      <stop offset="0" stop-color="#fad408"/>
      <stop offset=".29" stop-color="#fad40a"/>
      <stop offset=".43" stop-color="#fad511"/>
      <stop offset=".53" stop-color="#fad71e"/>
      <stop offset=".62" stop-color="#fadb31"/>
      <stop offset=".7" stop-color="#fbdf49"/>
      <stop offset=".78" stop-color="#fbe466"/>
      <stop offset=".85" stop-color="#fcea8a"/>
      <stop offset=".91" stop-color="#fdf1b3"/>
      <stop offset=".97" stop-color="#fef9e0"/>
      <stop offset="1" stop-color="#fff"/>
    </linearGradient>
    <linearGradient id="linear-gradient-2" x1="155.17" x2="155.17" xlink:href="#linear-gradient"/>
    <linearGradient id="linear-gradient-3" x1="237.1" y1="138.71" x2="237.1" y2="34.02" xlink:href="#linear-gradient"/>
    <linearGradient id="linear-gradient-4" x1="65.19" y1="24.6" x2="65.19" y2="9.64" gradientUnits="userSpaceOnUse">
      <stop offset="0" stop-color="#f1fafe"/>
      <stop offset=".1" stop-color="#ebf8fd"/>
      <stop offset=".23" stop-color="#dcf3fc"/>
      <stop offset=".37" stop-color="#c3ebfb"/>
      <stop offset=".52" stop-color="#a0e0f9"/>
      <stop offset=".68" stop-color="#74d2f6"/>
      <stop offset=".84" stop-color="#3dc1f2"/>
      <stop offset="1" stop-color="#00aeef"/>
    </linearGradient>
    <linearGradient id="linear-gradient-5" x1="95.96" y1="-27.65" x2="95.96" y2="-42.62" gradientTransform="translate(113.38 92.68) rotate(-180)" xlink:href="#linear-gradient-4"/>
  </defs>
  <g>
    <path d="m83.77,177.65v-21.42h3.89v21.42h-3.89Z" fill="#fad408" stroke="#2e3192" stroke-miterlimit="10" stroke-width=".97"/>
    <path d="m94.19,177.65v-16.07h-3.87v-5.35h7.74v21.42h-3.87Zm7.47-16.07h-2.83v-5.35h5.43l-2.59,5.35Z" fill="#fad408" stroke="#2e3192" stroke-miterlimit="10" stroke-width=".97"/>
    <path d="m128.24,177.65v-12.85h-7.76v-5.35h9.68c.53,0,.98.25,1.37.76.38.51.58,1.14.58,1.89v15.54h-3.87Zm-7.76,0v-11.79h3.89v11.79h-3.89Z" fill="#fad408" stroke="#2e3192" stroke-miterlimit="10" stroke-width=".97"/>
    <path d="m160.09,177.65h-8.65l-2.6-5.35h7.98l-6.58-9.66h5.31c1.51,2.17,3.01,4.33,4.52,6.47,1.3,2.08,1.95,3.5,1.95,4.25v1.59c0,.73-.19,1.36-.58,1.89-.38.53-.83.8-1.35.8Zm-10.48-16.07v-2.69c0-.73.19-1.36.56-1.88.38-.52.84-.78,1.38-.78h7.86l2.59,5.35h-12.4Z" fill="#fad408" stroke="#2e3192" stroke-miterlimit="10" stroke-width=".97"/>
    <path d="m163.9,164.8v-2.69c0-.71.19-1.33.58-1.86.38-.53.84-.8,1.37-.8h7.74c.54,0,1,.26,1.38.78.38.52.56,1.15.56,1.88v2.69h-11.63Zm9.68,12.85h-7.74c-.53,0-.98-.27-1.37-.8-.38-.53-.58-1.16-.58-1.89v-9.1h3.89v6.44h3.87v-6.44h3.87v9.1c0,.73-.19,1.36-.58,1.89-.38.53-.84.8-1.37.8Z" fill="#fad408" stroke="#2e3192" stroke-miterlimit="10" stroke-width=".97"/>
    <path d="m183.91,164.8h-1.27v12.85h-3.87v-12.85h-1.56v-5.35h9.3l-2.59,5.35Zm-5.14-6.44v-2.66c0-.73.18-1.36.55-1.89s.83-.8,1.37-.8h4.78l2.59,5.35h-9.3Z" fill="#fad408" stroke="#2e3192" stroke-miterlimit="10" stroke-width=".97"/>
    <path d="m190.15,177.65v-12.85h-1.56v-5.35h1.56v-6.44l3.87,3.59v21.05h-3.87Zm4.64-12.85v-5.35h.5l2.59,5.35h-3.1Z" fill="#fad408" stroke="#2e3192" stroke-miterlimit="10" stroke-width=".97"/>
    <path d="m201.36,177.65c-.53,0-.99-.27-1.37-.8-.38-.53-.58-1.16-.58-1.89v-15.51h3.89v12.85h1.54v-12.85h3.87v12.85h1.56v-12.85h3.87v18.2h-12.78Z" fill="#fad408" stroke="#2e3192" stroke-miterlimit="10" stroke-width=".97"/>
    <path d="m216.42,164.8l2.59-5.35h7.09c.54,0,1,.26,1.38.78.38.52.56,1.15.56,1.88v2.69h-11.63Zm1.95,12.85c-.53,0-.99-.27-1.37-.8-.38-.53-.58-1.16-.58-1.89v-6.41c0-.73.19-1.36.58-1.89.38-.53.84-.8,1.37-.8h2.45l2.59,5.35h-3.1v1.1h3.87v-6.44h3.87v11.79h-9.68Z" fill="#fad408" stroke="#2e3192" stroke-miterlimit="10" stroke-width=".97"/>
    <path d="m230.32,177.65v-18.2h3.89v18.2h-3.89Zm4.66-12.85v-5.35h4.37l2.59,5.35h-6.97Z" fill="#fad408" stroke="#2e3192" stroke-miterlimit="10" stroke-width=".97"/>
    <path d="m252.37,177.65h-7.88c-.53,0-.99-.27-1.37-.8-.38-.53-.58-1.16-.58-1.89v-12.85c0-.71.19-1.33.58-1.86.38-.53.84-.8,1.37-.8h7.76c.53,0,.98.26,1.36.78.38.52.56,1.15.56,1.88v2.69h-7.74v7.5h8.53l-2.59,5.35Zm-.12-6.44h-2.45l-2.59-5.35h6.97v2.69c0,.73-.19,1.36-.56,1.88-.38.52-.83.78-1.36.78Z" fill="#fad408" stroke="#2e3192" stroke-miterlimit="10" stroke-width=".97"/>
    <path d="m282.94,177.65h-8.65l-2.59-5.35h7.98l-6.58-9.66h5.31c1.51,2.17,3.01,4.33,4.52,6.47,1.3,2.08,1.95,3.5,1.95,4.25v1.59c0,.73-.19,1.36-.58,1.89-.38.53-.83.8-1.35.8Zm-10.47-16.07v-2.69c0-.73.19-1.36.56-1.88.38-.52.84-.78,1.38-.78h7.86l2.59,5.35h-12.4Z" fill="#fad408" stroke="#2e3192" stroke-miterlimit="10" stroke-width=".97"/>
    <path d="m286.76,164.8v-2.69c0-.71.19-1.33.58-1.86.38-.53.84-.8,1.37-.8h7.74c.54,0,1,.26,1.38.78.38.52.56,1.15.56,1.88v2.69h-11.63Zm9.68,12.85h-7.74c-.53,0-.99-.27-1.37-.8-.38-.53-.58-1.16-.58-1.89v-9.1h3.89v6.44h3.87v-6.44h3.87v9.1c0,.73-.19,1.36-.58,1.89-.38.53-.84.8-1.37.8Z" fill="#fad408" stroke="#2e3192" stroke-miterlimit="10" stroke-width=".97"/>
    <path d="m301.04,177.65v-24.64h3.89v24.64h-3.89Z" fill="#fad408" stroke="#2e3192" stroke-miterlimit="10" stroke-width=".97"/>
    <path d="m309.54,177.65c-.53,0-.99-.27-1.37-.8-.38-.53-.58-1.16-.58-1.89v-15.51h3.89v12.85h3.87v-12.85h3.87v18.2h-9.68Z" fill="#fad408" stroke="#2e3192" stroke-miterlimit="10" stroke-width=".97"/>
    <path d="m323.06,177.65v-12.85h-1.56v-5.35h1.56v-6.44l3.87,3.59v21.05h-3.87Zm4.64-12.85v-5.35h.5l2.59,5.35h-3.1Z" fill="#fad408" stroke="#2e3192" stroke-miterlimit="10" stroke-width=".97"/>
    <path d="m332.71,157.3v-4.28h3.89v4.28h-3.89Zm0,20.35v-18.2h3.89v18.2h-3.89Z" fill="#fad408" stroke="#2e3192" stroke-miterlimit="10" stroke-width=".97"/>
    <path d="m339.26,164.8v-2.69c0-.71.19-1.33.58-1.86.38-.53.84-.8,1.37-.8h7.74c.54,0,1,.26,1.38.78.38.52.56,1.15.56,1.88v2.69h-11.63Zm9.68,12.85h-7.74c-.53,0-.99-.27-1.37-.8-.38-.53-.58-1.16-.58-1.89v-9.1h3.89v6.44h3.87v-6.44h3.87v9.1c0,.73-.19,1.36-.58,1.89-.38.53-.84.8-1.37.8Z" fill="#fad408" stroke="#2e3192" stroke-miterlimit="10" stroke-width=".97"/>
    <path d="m360.93,177.65v-12.85h-7.76v-5.35h9.68c.53,0,.99.25,1.37.76.38.51.58,1.14.58,1.89v15.54h-3.87Zm-7.76,0v-11.79h3.89v11.79h-3.89Z" fill="#fad408" stroke="#2e3192" stroke-miterlimit="10" stroke-width=".97"/>
  </g>
  <path d="m380.97,17.06c0,5.58-4.38,9.96-10.08,9.96s-10.14-4.38-10.14-9.96,4.5-9.84,10.14-9.84,10.08,4.38,10.08,9.84Zm-17.7,0c0,4.38,3.24,7.86,7.68,7.86s7.5-3.48,7.5-7.8-3.18-7.92-7.56-7.92-7.62,3.54-7.62,7.86Zm6.06,5.16h-2.28v-9.84c.9-.18,2.16-.3,3.78-.3,1.86,0,2.7.3,3.42.72.54.42.96,1.2.96,2.16,0,1.08-.84,1.92-2.04,2.28v.12c.96.36,1.5,1.08,1.8,2.4.3,1.5.48,2.1.72,2.46h-2.46c-.3-.36-.48-1.26-.78-2.4-.18-1.08-.78-1.56-2.04-1.56h-1.08v3.96Zm.06-5.58h1.08c1.26,0,2.28-.42,2.28-1.44,0-.9-.66-1.5-2.1-1.5-.6,0-1.02.06-1.26.12v2.82Z" fill="#231f20"/>
  <g>
    <path d="m287.08,110.3c-5.39,0-9.72-.29-13.02-.86-3.29-.57-6.04-1.7-8.23-3.37-4.89-3.87-7.33-9.21-7.33-16.01,0-4.92,1.2-13.66,3.59-26.21.4-2.2.92-4.73,1.57-7.61.65-2.88,1.29-5.78,1.95-8.71.65-2.93,1.29-5.7,1.94-8.32.65-2.61,1.22-4.71,1.72-6.28,1-3.87,1.99-7.14,2.99-9.81,1-2.67,2.04-4.94,3.14-6.83,1.1-1.88,2.34-3.43,3.74-4.63,1.4-1.2,3.04-2.28,4.94-3.22,1.69-.84,4.26-1.52,7.7-2.04,3.44-.52,7.05-.78,10.85-.78h29.02c4.59,0,8.33.29,11.22.86,2.89.58,5.63,1.75,8.23,3.53,2.59,1.99,4.44,4.34,5.54,7.06,1.1,2.72,1.65,5.91,1.65,9.57,0,1.78-.08,3.61-.22,5.49-.15,1.88-.45,4.13-.9,6.75-.45,2.62-1.05,5.7-1.79,9.26-.75,3.56-1.67,7.85-2.77,12.87-1.3,5.96-2.39,10.94-3.29,14.91-.9,3.98-1.72,7.3-2.47,9.97-.75,2.67-1.47,4.89-2.17,6.67-.7,1.78-1.5,3.45-2.39,5.02-1.8,3.14-3.82,5.57-6.06,7.3s-4.74,2.98-7.48,3.77c-2.74.79-5.74,1.26-8.98,1.41-3.24.16-6.76.24-10.55.24h-22.14Zm11.37-31.68c-.3,1.46-.45,2.61-.45,3.44,0,3.03,1.54,4.54,4.64,4.54,1.69,0,3.01-.63,3.96-1.88.95-1.25,1.82-3.65,2.62-7.2l8.83-40.07c.2-.83.35-1.59.45-2.27.1-.68.15-1.28.15-1.8,0-3.23-1.55-4.85-4.64-4.85-1.7,0-2.99.63-3.89,1.88-.9,1.25-1.75,3.6-2.54,7.04l-9.13,41.17Z" fill="url(#linear-gradient)" stroke="#2e3192" stroke-miterlimit="10" stroke-width="7"/>
    <path d="m171.62,19.58c1-2.2,1.65-3.79,1.94-4.79.3-.99.45-1.75.45-2.28,0-1.36-.9-2.3-2.69-2.83l.9-4.08h34.26c4.09,0,6.81.76,8.15,2.28,1.35,1.52,2.07,4.47,2.17,8.87l1.65,77.38c0,2.62.07,4.68.22,6.2.15,1.52.4,2.67.75,3.45.35.79.87,1.31,1.57,1.57.7.26,1.65.45,2.84.55l-1.05,4.39h-29.32c-2.09,0-3.77-.13-5.01-.39-1.25-.26-2.22-.76-2.92-1.49-.7-.73-1.17-1.78-1.42-3.14-.25-1.36-.37-3.14-.37-5.34l-.15-45.52-20.35,55.88h-32.16l-.3-55.88-12.27,41.12c-.6,1.99-1.02,3.48-1.27,4.47-.25,1-.37,1.75-.37,2.28,0,2.3,1.35,3.51,4.04,3.61l-1.05,4.39h-23.94c-3.29,0-5.69-.5-7.18-1.49-1.5-.99-2.24-2.54-2.24-4.63,0-.84.1-1.7.3-2.59.2-.89.7-2.38,1.5-4.47l27.68-76.91c.8-2.2,1.32-3.77,1.57-4.71.25-.94.37-1.67.37-2.2,0-1.67-.85-2.88-2.54-3.61l.9-4.08h32.16c2.39,0,4.11.1,5.16.31,1.05.21,1.97.68,2.77,1.41,1.1.84,1.89,1.91,2.39,3.22.5,1.31.85,3.01,1.05,5.1l1.2,27.31,10.62-23.39Z" fill="url(#linear-gradient-2)" stroke="#2e3192" stroke-miterlimit="10" stroke-width="7"/>
    <path d="m188.71,132.75c0-.63.05-1.31.15-2.04.1-.73.25-1.46.45-2.2l17.2-78.17c.4-1.78.7-3.24.9-4.4.2-1.15.3-1.99.3-2.51,0-1.46-.32-2.54-.97-3.22-.65-.68-1.77-1.23-3.37-1.65l.9-4.55h61.19c2.29,0,4.24.05,5.83.16,1.59.11,2.97.29,4.11.55,1.15.26,2.17.63,3.07,1.1.9.47,1.74,1.02,2.54,1.65,2.99,2.51,4.49,6.28,4.49,11.3,0,1.47-.13,3.19-.37,5.18-.25,1.99-.6,3.95-1.05,5.89-.45,1.94-.92,3.79-1.42,5.57-.5,1.78-1.05,3.24-1.65,4.4-.9,1.78-2.05,3.22-3.44,4.32-1.4,1.1-3.24,2.02-5.54,2.75,2.99,1.15,5.36,2.62,7.11,4.4,1.74,1.78,2.62,4.71,2.62,8.79,0,2.09-.25,4.68-.75,7.77-.5,3.09-1.3,6.98-2.39,11.69-1.4,5.96-2.69,10.67-3.89,14.13-1.2,3.45-2.49,6.12-3.89,8-3.19,4.71-8.73,7.06-16.61,7.06h-57.6c-5.29,0-7.93-1.99-7.93-5.96Zm42.49-18.36h4.04c2.59,0,4.49-.65,5.68-1.96,1.2-1.31,2.24-3.9,3.14-7.77l1.5-6.75c.1-.52.17-1.04.22-1.57.05-.52.07-1.04.07-1.57,0-1.67-.4-2.77-1.2-3.3-.8-.52-2.34-.79-4.64-.79h-3.59l-5.24,23.7Zm9.42-42.85h2.84c3.49,0,5.73-1.57,6.73-4.71.4-1.04.72-2.2.97-3.45.25-1.26.37-2.3.37-3.14,0-2.83-1.7-4.24-5.09-4.24h-2.54l-3.29,15.54Z" fill="url(#linear-gradient-3)" stroke="#2e3192" stroke-miterlimit="10" stroke-width="7"/>
  </g>
  <g>
    <g>
      <polyline points="59.43 20.55 19.11 50.13 19.11 93.36" fill="none" stroke="#2e3192" stroke-miterlimit="10" stroke-width="9.9"/>
      <ellipse cx="65.19" cy="17.12" rx="17.42" ry="16.88" fill="#2e3192"/>
      <g>
        <ellipse cx="65.19" cy="17.12" rx="7.73" ry="7.48" fill="#fff"/>
        <ellipse cx="65.19" cy="17.12" rx="7.73" ry="7.48" fill="none" stroke="#fff" stroke-miterlimit="10" stroke-width=".66"/>
        <ellipse cx="65.19" cy="17.12" rx="7.73" ry="7.48" fill="url(#linear-gradient-4)"/>
      </g>
      <ellipse cx="19.11" cy="96.17" rx="11.03" ry="10.69" fill="#2e3192"/>
    </g>
    <g>
      <polyline points="23.19 124.39 63.51 94.8 63.51 51.57" fill="none" stroke="#2e3192" stroke-miterlimit="10" stroke-width="9.9"/>
      <ellipse cx="17.42" cy="127.81" rx="17.42" ry="16.88" fill="#2e3192"/>
      <g>
        <ellipse cx="17.42" cy="127.81" rx="7.73" ry="7.48" fill="#fff"/>
        <ellipse cx="17.42" cy="127.81" rx="7.73" ry="7.48" fill="none" stroke="#fff" stroke-miterlimit="10" stroke-width=".66"/>
        <ellipse cx="17.42" cy="127.81" rx="7.73" ry="7.48" fill="url(#linear-gradient-5)"/>
      </g>
      <ellipse cx="63.51" cy="48.76" rx="11.03" ry="10.69" fill="#2e3192"/>
    </g>
  </g>
</svg>